<?xml version="1.0" encoding="iso-8859-1"?>
<!-- Generator: Adobe Illustrator 17.1.0, SVG Export Plug-In . SVG Version: 6.00 Build 0)  -->
<!DOCTYPE svg PUBLIC "-//W3C//DTD SVG 1.1//EN" "http://www.w3.org/Graphics/SVG/1.1/DTD/svg11.dtd">
<svg xmlns="http://www.w3.org/2000/svg" xmlns:xlink="http://www.w3.org/1999/xlink" version="1.1" id="Capa_1" x="0px" y="0px" viewBox="0 0 464.329 464.329" style="enable-background:new 0 0 464.329 464.329;" xml:space="preserve" width="512px" height="512px">
<path d="M407.303,117.525l-181.146-61.39V45.077c0-0.004,0-0.008,0-0.012v-0.039c0-0.103-0.024-0.199-0.03-0.3  c-0.014-0.226-0.024-0.452-0.068-0.671c-0.03-0.153-0.086-0.294-0.129-0.442c-0.048-0.163-0.086-0.328-0.15-0.485  c-0.065-0.158-0.153-0.302-0.234-0.451c-0.072-0.134-0.134-0.273-0.217-0.4c-0.089-0.135-0.198-0.253-0.299-0.379  c-0.101-0.125-0.194-0.256-0.307-0.372c-0.108-0.11-0.232-0.2-0.349-0.3c-0.128-0.109-0.248-0.224-0.388-0.32  c-0.143-0.098-0.301-0.173-0.454-0.256c-0.131-0.071-0.253-0.153-0.392-0.213c-0.214-0.093-0.443-0.155-0.672-0.217  c-0.088-0.024-0.168-0.064-0.258-0.083l-0.034-0.007c-0.007-0.001-0.013-0.003-0.02-0.004L86.769,10.969V5c0-2.761-2.239-5-5-5  H58.631c-2.761,0-5,2.239-5,5v454.329c0,2.761,2.239,5,5,5h23.138c2.761,0,5-2.239,5-5V204.164l129.389-27.865v8.503  c0,0.098,0.023,0.19,0.029,0.287c0.01,0.175,0.024,0.348,0.053,0.523c0.029,0.177,0.072,0.346,0.119,0.517  c0.026,0.093,0.033,0.186,0.064,0.279c0.022,0.065,0.056,0.122,0.08,0.186c0.042,0.11,0.089,0.217,0.139,0.323  c0.084,0.179,0.177,0.35,0.28,0.515c0.052,0.084,0.102,0.169,0.159,0.25c0.14,0.199,0.294,0.383,0.459,0.557  c0.036,0.038,0.067,0.081,0.105,0.118c0.211,0.208,0.439,0.396,0.681,0.562c0.061,0.042,0.128,0.074,0.191,0.114  c0.186,0.116,0.376,0.222,0.575,0.312c0.095,0.043,0.192,0.08,0.29,0.118c0.192,0.073,0.388,0.134,0.589,0.183  c0.092,0.022,0.181,0.048,0.274,0.065c0.299,0.056,0.603,0.093,0.911,0.093c0.304,0,0.61-0.036,0.916-0.094  c0.11-0.02,0.213-0.053,0.32-0.08c0.123-0.031,0.247-0.051,0.37-0.092l184.541-62.542c2.029-0.688,3.395-2.592,3.395-4.735  S409.333,118.213,407.303,117.525z M63.631,454.329V205.126h13.138v249.203H63.631z M226.158,177.828v-7.76c0-0.004,0-0.008,0-0.012  v-62.498c0-2.761-2.239-5-5-5s-5,2.239-5,5v58.512L86.769,193.935V57.184c0-2.761-2.239-5-5-5s-5,2.239-5,5v137.942H63.631V10  h13.138v4.952c0,0.006,0,0.012,0,0.019v12.194c0,2.761,2.239,5,5,5s5-2.239,5-5v-5.967l129.389,27.865v18.992c0,2.761,2.239,5,5,5  s5-2.239,5-5v-1.361l163.963,55.567L226.158,177.828z" fill="#FFFFFF"/>
<g>
</g>
<g>
</g>
<g>
</g>
<g>
</g>
<g>
</g>
<g>
</g>
<g>
</g>
<g>
</g>
<g>
</g>
<g>
</g>
<g>
</g>
<g>
</g>
<g>
</g>
<g>
</g>
<g>
</g>
</svg>
